<svg width="25" height="32" viewBox="0 0 25 32" fill="none" xmlns="http://www.w3.org/2000/svg">
<g id="fa-solid:award" clip-path="url(#clip0_993_384)">
<path id="Vector" d="M6.54266 22.6624C6.00195 22.1193 6.28381 22.2724 4.97964 21.9218C4.3879 21.7624 3.86772 21.4562 3.39732 21.0893L0.574301 28.0418C0.301146 28.7149 0.811368 29.4462 1.53439 29.4187L4.81288 29.2931L7.06781 31.6856C7.56559 32.2131 8.43919 32.0487 8.71235 31.3756L11.951 23.3993C11.2765 23.7768 10.528 23.9981 9.75395 23.9981C8.54061 23.9981 7.4007 23.5237 6.54266 22.6624ZM24.3183 28.0418L21.4953 21.0893C21.0249 21.4568 20.5047 21.7624 19.913 21.9218C18.6019 22.2743 18.8894 22.1206 18.35 22.6624C17.4919 23.5237 16.3514 23.9981 15.138 23.9981C14.364 23.9981 13.6155 23.7762 12.941 23.3993L16.1796 31.3756C16.4528 32.0487 17.327 32.2131 17.8242 31.6856L20.0797 29.2931L23.3582 29.4187C24.0812 29.4462 24.5915 28.7143 24.3183 28.0418ZM16.8641 21.2481C17.8148 20.2762 17.9237 20.3599 19.2777 19.9893C20.142 19.7524 20.8177 19.0618 21.0492 18.1781C21.5146 16.4031 21.3939 16.6174 22.6638 15.3187C23.2966 14.6718 23.5436 13.7287 23.3122 12.8449C22.8474 11.0712 22.8468 11.3187 23.3122 9.54306C23.5436 8.65931 23.2966 7.71619 22.6638 7.06931C21.3939 5.77056 21.5146 5.98431 21.0492 4.20994C20.8177 3.32619 20.142 2.63556 19.2777 2.39869C17.5429 1.92306 17.752 2.04744 16.4808 0.748062C15.848 0.101188 14.9252 -0.151937 14.061 0.0849375C12.3268 0.559937 12.5689 0.560562 10.8316 0.0849375C9.96737 -0.151937 9.04461 0.100563 8.41181 0.748062C7.14186 2.04681 7.35092 1.92306 5.61555 2.39869C4.75128 2.63556 4.07555 3.32619 3.84408 4.20994C3.37928 5.98431 3.49937 5.77056 2.22941 7.06931C1.59661 7.71619 1.34897 8.65931 1.58106 9.54306C2.04586 11.3156 2.04648 11.0681 1.58106 12.8443C1.34959 13.7281 1.59661 14.6712 2.22941 15.3187C3.49937 16.6174 3.37866 16.4031 3.84408 18.1781C4.07555 19.0618 4.75128 19.7524 5.61555 19.9893C7.00808 20.3706 7.11199 20.3106 8.02852 21.2481C8.85173 22.0899 10.1341 22.2406 11.1235 21.6118C11.5191 21.3595 11.978 21.2256 12.4466 21.2256C12.9152 21.2256 13.3742 21.3595 13.7698 21.6118C14.7585 22.2406 16.0409 22.0899 16.8641 21.2481ZM6.57626 10.9956C6.57626 7.68119 9.20452 4.99431 12.4463 4.99431C15.6881 4.99431 18.3163 7.68119 18.3163 10.9956C18.3163 14.3099 15.6881 16.9968 12.4463 16.9968C9.20452 16.9968 6.57626 14.3099 6.57626 10.9956Z" fill="#FF7B47"/>
</g>
<defs>
<clipPath id="clip0_993_384">
<rect width="23.8933" height="32" fill="white" transform="translate(0.5)"/>
</clipPath>
</defs>
</svg>
