<svg width="29" height="27" viewBox="0 0 29 27" fill="none" xmlns="http://www.w3.org/2000/svg">
<g id="clarity:users-line" clip-path="url(#clip0_993_370)">
<path id="Vector" d="M14.4039 12.7044C17.0044 12.7044 19.0269 10.5697 19.0269 7.94993C19.0269 5.33011 16.908 3.29248 14.3076 3.29248C11.7071 3.29248 9.68457 5.42715 9.68457 7.94993C9.68457 10.5697 11.8035 12.7044 14.4039 12.7044ZM14.3076 5.23309C14.4039 5.23309 14.4039 5.23309 14.3076 5.23309C15.8486 5.23309 17.1007 6.49448 17.1007 8.04696C17.1007 9.59945 15.8486 10.7638 14.3076 10.7638C12.7666 10.7638 11.6108 9.50242 11.6108 8.04696C11.6108 6.49448 12.8629 5.23309 14.3076 5.23309Z" fill="#FF7B47"/>
<path id="Vector_2" d="M28.658 12.122C26.8281 10.4725 24.4203 9.59924 21.9161 9.69627H21.1456C20.953 10.4725 20.6641 11.1517 20.2788 11.7339C20.8567 11.6369 21.3383 11.6369 21.9161 11.6369C23.7461 11.5398 25.576 12.122 27.0207 13.1894V20.1755H28.947V12.4131L28.658 12.122Z" fill="#FF7B47"/>
<path id="Vector_3" d="M19.7009 3.4859C20.1825 2.32154 21.5309 1.73936 22.7829 2.22451C23.9387 2.70966 24.5166 4.06808 24.035 5.32947C23.6498 6.20275 22.7829 6.78493 21.9161 6.78493C21.7235 6.78493 21.4346 6.78493 21.2419 6.6879C21.3382 7.17305 21.3382 7.6582 21.3382 8.04632V8.6285C21.5309 8.6285 21.7235 8.72553 21.9161 8.72553C24.3239 8.72553 26.2502 6.78493 26.2502 4.4562C26.2502 2.03045 24.3239 0.0898438 22.0124 0.0898438C20.4714 0.0898438 19.123 0.866085 18.3525 2.22451C18.8341 2.5156 19.3157 2.90372 19.7009 3.4859Z" fill="#FF7B47"/>
<path id="Vector_4" d="M8.72139 11.8306C8.33614 11.2484 8.0472 10.5692 7.85457 9.79296H7.08407C4.57993 9.69593 2.17211 10.5692 0.342161 12.1217L0.0532227 12.4128V20.1752H1.97948V13.189C3.52049 12.1217 5.25412 11.5395 7.08407 11.6365C7.66195 11.6365 8.23982 11.7336 8.72139 11.8306Z" fill="#FF7B47"/>
<path id="Vector_5" d="M7.08371 8.62915C7.27634 8.62915 7.46896 8.62915 7.66159 8.53212V7.94994C7.66159 7.46479 7.66159 6.97963 7.7579 6.59151C7.56528 6.68854 7.27634 6.68854 7.08371 6.68854C5.83165 6.68854 4.7722 5.62121 4.7722 4.35982C4.7722 3.09843 5.83165 2.03109 7.08371 2.03109C8.04684 2.03109 8.91366 2.61327 9.29891 3.48655C9.68416 3.0014 10.262 2.51624 10.7436 2.12812C9.49154 0.0904882 6.89109 -0.588723 4.86852 0.67267C2.84595 1.93406 2.17176 4.55388 3.42382 6.59151C4.19433 7.85291 5.54271 8.62915 7.08371 8.62915Z" fill="#FF7B47"/>
<path id="Vector_6" d="M22.3013 17.9435L22.1087 17.6524C20.1824 15.5177 17.4857 14.2563 14.5963 14.3534C11.7069 14.2563 8.91381 15.5177 6.98755 17.6524L6.79492 17.9435V25.3178C6.79492 26.1911 7.46911 26.9673 8.43224 26.9673H20.7603C21.6271 26.9673 22.3976 26.1911 22.3976 25.3178V17.9435H22.3013ZM20.375 25.0267H8.72118V18.6227C10.2622 17.0702 12.3811 16.294 14.5963 16.294C16.7152 16.1969 18.834 17.0702 20.375 18.6227V25.0267Z" fill="#FF7B47"/>
</g>
<defs>
<clipPath id="clip0_993_370">
<rect width="29" height="27" fill="white"/>
</clipPath>
</defs>
</svg>
