<svg width="23" height="22" viewBox="0 0 23 22" fill="none" xmlns="http://www.w3.org/2000/svg">
<path d="M20.6306 8.41256C20.5729 8.24274 20.4668 8.09353 20.3253 7.98335C20.1838 7.87316 20.0132 7.80681 19.8344 7.79251L14.6053 7.377L12.3424 2.36798C12.2704 2.20665 12.1532 2.06963 12.0049 1.97344C11.8567 1.87726 11.6838 1.82602 11.5071 1.82593C11.3304 1.82583 11.1575 1.87687 11.0092 1.9729C10.8608 2.06892 10.7435 2.20582 10.6712 2.36707L8.40842 7.377L3.17927 7.79251C3.00358 7.80642 2.83562 7.87066 2.69548 7.97754C2.55534 8.08442 2.44896 8.2294 2.38907 8.39516C2.32917 8.56091 2.3183 8.74041 2.35774 8.91218C2.39719 9.08395 2.48529 9.24072 2.6115 9.36373L6.47581 13.1308L5.10913 19.0488C5.06763 19.2279 5.08093 19.4154 5.1473 19.5869C5.21368 19.7584 5.33006 19.9059 5.48135 20.0105C5.63263 20.115 5.81184 20.1716 5.99571 20.173C6.17959 20.1744 6.35964 20.1205 6.5125 20.0183L11.5068 16.6888L16.5012 20.0183C16.6574 20.1221 16.8417 20.1755 17.0292 20.1713C17.2167 20.1672 17.3984 20.1058 17.5499 19.9953C17.7015 19.8848 17.8156 19.7306 17.8768 19.5533C17.9381 19.3761 17.9436 19.1843 17.8926 19.0039L16.215 13.1336L20.3756 9.38941C20.648 9.14359 20.748 8.76019 20.6306 8.41256Z" fill="#F3CD03"/>
</svg>
